HIERARCHY
ROOT Hips
{
    OFFSET 0.000000 0.000000 0.000000
    CHANNELS 6 Xposition Yposition Zposition Zrotation Xrotation Yrotation
    JOINT Spine
    {
        OFFSET -0.000000 7.236184 0.000000
        CHANNELS 3 Zrotation Xrotation Yrotation
        JOINT Spine1
        {
            OFFSET -0.000000 20.420147 0.000000
            CHANNELS 3 Zrotation Xrotation Yrotation
            JOINT Neck
            {
                OFFSET -0.000000 20.336288 1.848754
                CHANNELS 3 Zrotation Xrotation Yrotation
                JOINT Head
                {
                    OFFSET -0.000000 12.354461 -1.764923
                    CHANNELS 3 Zrotation Xrotation Yrotation
                    End Site
                    {
                        OFFSET -0.000000 22.061537 0.000000
                    }
                }
            }
            JOINT LeftShoulder
            {
                OFFSET 3.573296 18.396038 -0.314103
                CHANNELS 3 Zrotation Xrotation Yrotation
                JOINT LeftArm
                {
                    OFFSET 10.880760 0.000000 0.000000
                    CHANNELS 3 Zrotation Xrotation Yrotation
                    JOINT LeftForeArm
                    {
                        OFFSET 27.185530 0.000000 0.000000
                        CHANNELS 3 Zrotation Xrotation Yrotation
                        JOINT LeftHand
                        {
                            OFFSET 27.825975 0.000000 0.000000
                            CHANNELS 3 Zrotation Xrotation Yrotation
                            End Site
                            {
                                OFFSET 13.236923 0.000000 0.000000
                            }
                        }
                    }
                }
            }
            JOINT RightShoulder
            {
                OFFSET -3.474926 18.396038 -0.314103
                CHANNELS 3 Zrotation Xrotation Yrotation
                JOINT RightArm
                {
                    OFFSET -10.880760 0.000000 0.000000
                    CHANNELS 3 Zrotation Xrotation Yrotation
                    JOINT RightForeArm
                    {
                        OFFSET -27.185530 0.000000 0.000000
                        CHANNELS 3 Zrotation Xrotation Yrotation
                        JOINT RightHand
                        {
                            OFFSET -27.825975 0.000000 0.000000
                            CHANNELS 3 Zrotation Xrotation Yrotation
                            End Site
                            {
                                OFFSET -13.236923 0.000000 0.000000
                            }
                        }
                    }
                }
            }
        }
    }
    JOINT LeftUpLeg
    {
        OFFSET 8.824615 0.000000 0.000000
        CHANNELS 3 Zrotation Xrotation Yrotation
        JOINT LeftLeg
        {
            OFFSET -0.000000 -35.111282 0.000000
            CHANNELS 3 Zrotation Xrotation Yrotation
            JOINT LeftFoot
            {
                OFFSET -0.000000 -42.324711 0.000000
                CHANNELS 3 Zrotation Xrotation Yrotation
                JOINT LeftToeBase
                {
                    OFFSET -0.000000 -5.735999 13.236923
                    CHANNELS 3 Zrotation Xrotation Yrotation
                    End Site
                    {
                        OFFSET -0.000000 0.000000 3.529846
                    }
                }
            }
        }
    }
    JOINT RightUpLeg
    {
        OFFSET -8.824615 0.000000 0.000000
        CHANNELS 3 Zrotation Xrotation Yrotation
        JOINT RightLeg
        {
            OFFSET -0.000000 -35.111282 0.000000
            CHANNELS 3 Zrotation Xrotation Yrotation
            JOINT RightFoot
            {
                OFFSET -0.000000 -42.324711 0.000000
                CHANNELS 3 Zrotation Xrotation Yrotation
                JOINT RightToeBase
                {
                    OFFSET -0.000000 -5.735999 13.236923
                    CHANNELS 3 Zrotation Xrotation Yrotation
                    End Site
                    {
                        OFFSET -0.000000 0.000000 3.529846
                    }
                }
            }
        }
    }
}
MOTION
Frames:    5
Frame Time:    0.008333
-3.730350    78.794861    118.855545    1.645089    -25.526258    165.868011    -1.524171    -3.381396    -3.503786    5.633192    -0.964883    -3.411303    12.301934    0.390965    9.318110    0.210217    -14.195525    7.953875    3.683124    10.544502    -6.089315    -50.314911    19.825468    -39.432697    30.685785    -14.236014    -45.475677    34.328991    -1.950842    -2.592731    7.746153    16.428661    -11.270844    51.091705    41.175026    20.761311    -2.325693    -9.831284    21.493423    -13.801407    -9.143119    -2.117359    36.616463    -35.995186    27.696789    -13.933380    41.534023    28.872864    -18.498474    -6.801861    -25.070259    2.526996    -4.441088    -2.824392    -33.885563    -54.035728    -24.390465    16.085108    46.231564    -8.002116    17.596149    11.120271    -10.381874    -0.103110    -4.566479    0.112256    
-3.402752    78.491386    118.901398    1.730651    -25.688097    165.826828    -1.564942    -3.393657    -3.476455    5.578028    -0.817310    -3.390253    12.296157    0.090844    9.268541    0.243170    -14.542326    7.879443    3.551381    10.853542    -6.036553    -50.425488    20.434113    -39.561306    30.242491    -13.588091    -44.432438    34.832291    -1.928821    -2.900118    7.831593    16.423849    -11.268715    51.040390    41.030716    20.900232    -2.380701    -9.827085    21.465784    -13.791796    -9.131707    -2.097646    37.676147    -36.205078    28.587721    -14.239140    42.327610    28.951651    -18.796764    -6.719365    -25.388697    2.572455    -4.548721    -2.875802    -34.159740    -53.931175    -23.878281    15.531446    45.191525    -7.598581    17.600122    11.191747    -10.222326    -0.130950    -4.533103    0.142557    
-3.047580    78.187546    118.940773    1.798926    -25.842773    165.793228    -1.621946    -3.416811    -3.451894    5.515102    -0.673661    -3.371048    12.277541    -0.199769    9.214871    0.273591    -14.882148    7.803329    3.426397    11.148237    -5.971403    -50.515259    21.033747    -39.659004    29.751675    -12.941267    -43.326244    35.325222    -1.929919    -3.179381    7.913863    16.427319    -11.272320    51.023773    40.885353    21.016541    -2.423980    -9.832171    21.446175    -13.786917    -9.131187    -2.081256    38.703888    -36.376305    29.383429    -14.574675    43.051929    29.089811    -19.099937    -6.630944    -25.696209    2.614776    -4.645542    -2.923662    -34.325268    -53.802509    -23.274443    14.948612    44.141090    -7.153571    17.626007    11.222485    -10.036674    -0.162541    -4.501953    0.176939    
-2.667437    77.887711    118.973770    1.848895    -25.989157    165.768356    -1.693516    -3.449487    -3.429803    5.444111    -0.536521    -3.353295    12.243075    -0.479135    9.156679    0.303107    -15.213572    7.726203    3.308730    11.423790    -5.893977    -50.585152    21.617012    -39.722469    29.213697    -12.305032    -42.172009    35.796127    -1.953525    -3.425660    7.991332    16.440966    -11.279351    51.040142    40.745224    21.110250    -2.455748    -9.849414    21.435493    -13.789089    -9.144090    -2.069712    39.686035    -36.509903    30.074320    -14.935492    43.697639    29.283285    -19.405020    -6.535241    -25.988958    2.653099    -4.731199    -2.967008    -34.386192    -53.654613    -22.598558    14.341631    43.104931    -6.671720    17.675320    11.204606    -9.830109    -0.198185    -4.472024    0.215730    
-2.261914    77.593353    119.000862    1.880307    -26.127731    165.752914    -1.778092    -3.490996    -3.409580    5.363966    -0.406754    -3.336317    12.189770    -0.748713    9.092944    0.333746    -15.537052    7.647970    3.197398    11.678374    -5.804047    -50.637997    22.181805    -39.748901    28.624462    -11.682848    -40.975346    36.238541    -1.998551    -3.637184    8.063144    16.465807    -11.287271    51.086967    40.616035    21.182224    -2.476916    -9.879992    21.433748    -13.798692    -9.171350    -2.063749    40.619244    -36.609367    30.663622    -15.315426    44.264488    29.522797    -19.711363    -6.430604    -26.265701    2.686810    -4.806869    -3.005151    -34.350445    -53.490952    -21.864752    13.712971    42.096554    -6.157164    17.749111    11.130939    -9.606719    -0.238590    -4.442215    0.259699    
